<?xml version="1.0" encoding="utf-8"?>
<!-- Generator: Adobe Illustrator 25.2.0, SVG Export Plug-In . SVG Version: 6.00 Build 0)  -->
<svg version="1.1" id="Layer_1" xmlns="http://www.w3.org/2000/svg" xmlns:xlink="http://www.w3.org/1999/xlink" x="0px" y="0px"
	 viewBox="0 0 32 32" style="enable-background:new 0 0 32 32;" xml:space="preserve">
<style type="text/css">
	.st0{fill:#1D1D1B;}
	.st1{fill:#0F8EA3;}
</style>
<g>
	<g>
		<path class="st1" d="M4.72,14.53c-0.48,1.56,0.11,3.3,0.67,4.46C3.1,16.79,0,13.8,0,9.28C0,5.2,2.96,1.53,7.39,1.53
			c5.75,0,6.77,4.68,8.6,4.68c0.32,0,0.37,0.03,0.66-0.2c-0.58,1.76-2.55,5.6-7.11,6.06C9.55,12.07,5.63,11.59,4.72,14.53z"/>
		<path class="st1" d="M23.86,23.91c-1.45,3.05-3.53,6.38-7.86,6.55c0.11,0,0.23,0.01,0.34,0.01h-0.68c0.12,0,0.23,0,0.34-0.01
			c-6.3-0.24-7.86-7.21-9.59-10.22c1.25-0.25,6.62-1.04,9.65,3.15c0,0,1.55,3.64,4.54,2.96C22.01,26.03,23.12,24.9,23.86,23.91z"/>
		<path class="st1" d="M32,9.28c0,4.73-3.4,7.79-5.71,10.01c-0.56,0.54-1.04,1.55-1.58,2.75c-0.82-0.93-4.23-5.21-2.1-9.94
			c0,0,2.38-3.16,0.29-5.41c-1.42-1.54-4-1.7-5.14-1.68c1.27-1.39,3-3.48,6.84-3.48C29.04,1.53,32,5.2,32,9.28z"/>
	</g>
</g>
</svg>
